<mxfile host="Electron" agent="Mozilla/5.0 (Windows NT 10.0; Win64; x64) AppleWebKit/537.36 (KHTML, like Gecko) draw.io/26.2.2 Chrome/134.0.6998.178 Electron/35.1.2 Safari/537.36" version="26.2.2">
  <diagram name="ページ1" id="jOxPYxRe2NjSyaelDi7L">
    <mxGraphModel dx="862" dy="656" grid="1" gridSize="10" guides="1" tooltips="1" connect="1" arrows="1" fold="1" page="1" pageScale="1" pageWidth="827" pageHeight="1169" math="0" shadow="0">
      <root>
        <mxCell id="0" />
        <mxCell id="1" parent="0" />
        <mxCell id="DdHN2ZvcSUB-z4P__BnH-2" value="プレイ方法の選択" style="swimlane;childLayout=stackLayout;resizeParent=1;resizeParentMax=0;startSize=20;html=1;" parent="1" vertex="1">
          <mxGeometry x="60" y="10" width="570" height="310" as="geometry" />
        </mxCell>
        <mxCell id="DdHN2ZvcSUB-z4P__BnH-3" value="プレイヤー" style="swimlane;startSize=20;html=1;" parent="DdHN2ZvcSUB-z4P__BnH-2" vertex="1">
          <mxGeometry y="20" width="130" height="290" as="geometry" />
        </mxCell>
        <mxCell id="DdHN2ZvcSUB-z4P__BnH-26" value="先手後手の選択" style="rounded=0;whiteSpace=wrap;html=1;" parent="DdHN2ZvcSUB-z4P__BnH-3" vertex="1">
          <mxGeometry x="31" y="140" width="90" height="20" as="geometry" />
        </mxCell>
        <mxCell id="DdHN2ZvcSUB-z4P__BnH-160" style="edgeStyle=orthogonalEdgeStyle;rounded=0;orthogonalLoop=1;jettySize=auto;html=1;exitX=0.5;exitY=1;exitDx=0;exitDy=0;" parent="DdHN2ZvcSUB-z4P__BnH-3" source="DdHN2ZvcSUB-z4P__BnH-158" edge="1">
          <mxGeometry relative="1" as="geometry">
            <mxPoint x="150" y="110" as="targetPoint" />
            <Array as="points">
              <mxPoint x="65" y="110" />
            </Array>
          </mxGeometry>
        </mxCell>
        <mxCell id="DdHN2ZvcSUB-z4P__BnH-158" value="プレイ方法の選択" style="rounded=0;whiteSpace=wrap;html=1;" parent="DdHN2ZvcSUB-z4P__BnH-3" vertex="1">
          <mxGeometry x="5" y="70" width="120" height="25" as="geometry" />
        </mxCell>
        <mxCell id="tiVLzOQCyIeZerAJm_1l-1" value="CPUの強さを選択" style="rounded=0;whiteSpace=wrap;html=1;" parent="DdHN2ZvcSUB-z4P__BnH-3" vertex="1">
          <mxGeometry x="20" y="180" width="101" height="20" as="geometry" />
        </mxCell>
        <mxCell id="DdHN2ZvcSUB-z4P__BnH-43" style="edgeStyle=orthogonalEdgeStyle;rounded=0;orthogonalLoop=1;jettySize=auto;html=1;exitX=0.5;exitY=1;exitDx=0;exitDy=0;entryX=0.5;entryY=0;entryDx=0;entryDy=0;" parent="DdHN2ZvcSUB-z4P__BnH-3" source="DdHN2ZvcSUB-z4P__BnH-26" target="tiVLzOQCyIeZerAJm_1l-1" edge="1">
          <mxGeometry relative="1" as="geometry" />
        </mxCell>
        <mxCell id="DdHN2ZvcSUB-z4P__BnH-4" value="クライアントプログラム" style="swimlane;startSize=20;html=1;" parent="DdHN2ZvcSUB-z4P__BnH-2" vertex="1">
          <mxGeometry x="130" y="20" width="280" height="290" as="geometry" />
        </mxCell>
        <mxCell id="DdHN2ZvcSUB-z4P__BnH-24" style="edgeStyle=orthogonalEdgeStyle;rounded=0;orthogonalLoop=1;jettySize=auto;html=1;exitX=0.5;exitY=1;exitDx=0;exitDy=0;entryX=0.5;entryY=0;entryDx=0;entryDy=0;" parent="DdHN2ZvcSUB-z4P__BnH-4" source="DdHN2ZvcSUB-z4P__BnH-14" target="DdHN2ZvcSUB-z4P__BnH-23" edge="1">
          <mxGeometry relative="1" as="geometry" />
        </mxCell>
        <mxCell id="DdHN2ZvcSUB-z4P__BnH-14" value="" style="ellipse;whiteSpace=wrap;html=1;aspect=fixed;fillColor=light-dark(#000000, #1a1a1a);fontColor=#333333;strokeColor=#666666;" parent="DdHN2ZvcSUB-z4P__BnH-4" vertex="1">
          <mxGeometry x="160" y="30" width="20" height="20" as="geometry" />
        </mxCell>
        <mxCell id="DdHN2ZvcSUB-z4P__BnH-29" style="edgeStyle=orthogonalEdgeStyle;rounded=0;orthogonalLoop=1;jettySize=auto;html=1;exitX=0.5;exitY=1;exitDx=0;exitDy=0;entryX=0.5;entryY=0;entryDx=0;entryDy=0;" parent="DdHN2ZvcSUB-z4P__BnH-4" source="DdHN2ZvcSUB-z4P__BnH-23" target="DdHN2ZvcSUB-z4P__BnH-27" edge="1">
          <mxGeometry relative="1" as="geometry" />
        </mxCell>
        <mxCell id="DdHN2ZvcSUB-z4P__BnH-23" value="&lt;div&gt;スタート画面&lt;/div&gt;" style="rounded=0;whiteSpace=wrap;html=1;" parent="DdHN2ZvcSUB-z4P__BnH-4" vertex="1">
          <mxGeometry x="100" y="65" width="140" height="30" as="geometry" />
        </mxCell>
        <mxCell id="Q-pru-dwEbLBsa_V41_M-358" style="edgeStyle=orthogonalEdgeStyle;rounded=0;orthogonalLoop=1;jettySize=auto;html=1;exitX=0.5;exitY=1;exitDx=0;exitDy=0;entryX=0.5;entryY=0;entryDx=0;entryDy=0;" parent="DdHN2ZvcSUB-z4P__BnH-4" source="DdHN2ZvcSUB-z4P__BnH-27" target="DdHN2ZvcSUB-z4P__BnH-141" edge="1">
          <mxGeometry relative="1" as="geometry" />
        </mxCell>
        <mxCell id="Q-pru-dwEbLBsa_V41_M-366" value="対人" style="edgeLabel;html=1;align=center;verticalAlign=middle;resizable=0;points=[];" parent="Q-pru-dwEbLBsa_V41_M-358" vertex="1" connectable="0">
          <mxGeometry x="-0.5195" y="1" relative="1" as="geometry">
            <mxPoint y="1" as="offset" />
          </mxGeometry>
        </mxCell>
        <mxCell id="Q-pru-dwEbLBsa_V41_M-367" value="「ログイン」へ" style="edgeLabel;html=1;align=center;verticalAlign=middle;resizable=0;points=[];" parent="Q-pru-dwEbLBsa_V41_M-358" vertex="1" connectable="0">
          <mxGeometry x="0.4416" y="-2" relative="1" as="geometry">
            <mxPoint y="-1" as="offset" />
          </mxGeometry>
        </mxCell>
        <mxCell id="DdHN2ZvcSUB-z4P__BnH-27" value="" style="rhombus;whiteSpace=wrap;html=1;" parent="DdHN2ZvcSUB-z4P__BnH-4" vertex="1">
          <mxGeometry x="160" y="120" width="20" height="20" as="geometry" />
        </mxCell>
        <mxCell id="Q-pru-dwEbLBsa_V41_M-363" style="edgeStyle=orthogonalEdgeStyle;rounded=0;orthogonalLoop=1;jettySize=auto;html=1;exitX=0.5;exitY=1;exitDx=0;exitDy=0;entryX=0.5;entryY=0;entryDx=0;entryDy=0;" parent="DdHN2ZvcSUB-z4P__BnH-4" source="DdHN2ZvcSUB-z4P__BnH-32" target="Q-pru-dwEbLBsa_V41_M-362" edge="1">
          <mxGeometry relative="1" as="geometry" />
        </mxCell>
        <mxCell id="Q-pru-dwEbLBsa_V41_M-364" value="「対局」へ" style="edgeLabel;html=1;align=center;verticalAlign=middle;resizable=0;points=[];" parent="Q-pru-dwEbLBsa_V41_M-363" vertex="1" connectable="0">
          <mxGeometry x="-0.1714" y="-1" relative="1" as="geometry">
            <mxPoint y="-1" as="offset" />
          </mxGeometry>
        </mxCell>
        <mxCell id="DdHN2ZvcSUB-z4P__BnH-32" value="CPUプログラムを呼び出す" style="rounded=0;whiteSpace=wrap;html=1;" parent="DdHN2ZvcSUB-z4P__BnH-4" vertex="1">
          <mxGeometry x="30" y="160" width="90" height="40" as="geometry" />
        </mxCell>
        <mxCell id="DdHN2ZvcSUB-z4P__BnH-168" style="edgeStyle=orthogonalEdgeStyle;rounded=0;orthogonalLoop=1;jettySize=auto;html=1;exitX=1;exitY=0.5;exitDx=0;exitDy=0;" parent="DdHN2ZvcSUB-z4P__BnH-4" source="DdHN2ZvcSUB-z4P__BnH-163" edge="1">
          <mxGeometry relative="1" as="geometry">
            <mxPoint x="170" y="110.41176470588243" as="targetPoint" />
          </mxGeometry>
        </mxCell>
        <mxCell id="DdHN2ZvcSUB-z4P__BnH-163" value="選択を受け取る" style="rounded=0;whiteSpace=wrap;html=1;" parent="DdHN2ZvcSUB-z4P__BnH-4" vertex="1">
          <mxGeometry x="19" y="100" width="120" height="20" as="geometry" />
        </mxCell>
        <mxCell id="DdHN2ZvcSUB-z4P__BnH-141" value="" style="ellipse;html=1;shape=endState;fillColor=#000000;strokeColor=#000000;" parent="DdHN2ZvcSUB-z4P__BnH-4" vertex="1">
          <mxGeometry x="159.5" y="250" width="21" height="20" as="geometry" />
        </mxCell>
        <mxCell id="Q-pru-dwEbLBsa_V41_M-362" value="" style="ellipse;html=1;shape=endState;fillColor=#000000;strokeColor=#000000;" parent="DdHN2ZvcSUB-z4P__BnH-4" vertex="1">
          <mxGeometry x="64.5" y="250" width="21" height="20" as="geometry" />
        </mxCell>
        <mxCell id="DdHN2ZvcSUB-z4P__BnH-5" value="サーバ" style="swimlane;startSize=20;html=1;" parent="DdHN2ZvcSUB-z4P__BnH-2" vertex="1">
          <mxGeometry x="410" y="20" width="160" height="290" as="geometry" />
        </mxCell>
        <mxCell id="DdHN2ZvcSUB-z4P__BnH-31" style="edgeStyle=orthogonalEdgeStyle;rounded=0;orthogonalLoop=1;jettySize=auto;html=1;exitX=0;exitY=0.5;exitDx=0;exitDy=0;entryX=0.5;entryY=0;entryDx=0;entryDy=0;" parent="DdHN2ZvcSUB-z4P__BnH-2" source="DdHN2ZvcSUB-z4P__BnH-27" target="DdHN2ZvcSUB-z4P__BnH-26" edge="1">
          <mxGeometry relative="1" as="geometry">
            <Array as="points">
              <mxPoint x="76" y="150" />
            </Array>
          </mxGeometry>
        </mxCell>
        <mxCell id="DdHN2ZvcSUB-z4P__BnH-39" value="対CPU" style="edgeLabel;html=1;align=center;verticalAlign=middle;resizable=0;points=[];" parent="DdHN2ZvcSUB-z4P__BnH-31" vertex="1" connectable="0">
          <mxGeometry x="-0.3176" relative="1" as="geometry">
            <mxPoint as="offset" />
          </mxGeometry>
        </mxCell>
        <mxCell id="DdHN2ZvcSUB-z4P__BnH-159" style="edgeStyle=orthogonalEdgeStyle;rounded=0;orthogonalLoop=1;jettySize=auto;html=1;exitX=0;exitY=0.5;exitDx=0;exitDy=0;" parent="DdHN2ZvcSUB-z4P__BnH-2" source="DdHN2ZvcSUB-z4P__BnH-23" edge="1">
          <mxGeometry relative="1" as="geometry">
            <mxPoint x="125" y="100" as="targetPoint" />
          </mxGeometry>
        </mxCell>
        <mxCell id="tiVLzOQCyIeZerAJm_1l-2" style="edgeStyle=orthogonalEdgeStyle;rounded=0;orthogonalLoop=1;jettySize=auto;html=1;exitX=1;exitY=0.5;exitDx=0;exitDy=0;entryX=0;entryY=0.75;entryDx=0;entryDy=0;" parent="DdHN2ZvcSUB-z4P__BnH-2" source="tiVLzOQCyIeZerAJm_1l-1" target="DdHN2ZvcSUB-z4P__BnH-32" edge="1">
          <mxGeometry relative="1" as="geometry" />
        </mxCell>
        <mxCell id="Q-pru-dwEbLBsa_V41_M-183" value="ログイン" style="swimlane;childLayout=stackLayout;resizeParent=1;resizeParentMax=0;startSize=20;html=1;" parent="1" vertex="1">
          <mxGeometry x="20" y="357.5" width="620" height="612.5" as="geometry" />
        </mxCell>
        <mxCell id="Q-pru-dwEbLBsa_V41_M-184" value="プレイヤー" style="swimlane;startSize=20;html=1;" parent="Q-pru-dwEbLBsa_V41_M-183" vertex="1">
          <mxGeometry y="20" width="140" height="592.5" as="geometry" />
        </mxCell>
        <mxCell id="Q-pru-dwEbLBsa_V41_M-186" value="プレイヤー名入力" style="rounded=0;whiteSpace=wrap;html=1;" parent="Q-pru-dwEbLBsa_V41_M-184" vertex="1">
          <mxGeometry x="15" y="60" width="100" height="20" as="geometry" />
        </mxCell>
        <mxCell id="Q-pru-dwEbLBsa_V41_M-191" value="クライアントプログラム" style="swimlane;startSize=20;html=1;" parent="Q-pru-dwEbLBsa_V41_M-183" vertex="1">
          <mxGeometry x="140" y="20" width="270" height="592.5" as="geometry" />
        </mxCell>
        <mxCell id="Q-pru-dwEbLBsa_V41_M-193" value="" style="ellipse;whiteSpace=wrap;html=1;aspect=fixed;fillColor=light-dark(#000000, #1a1a1a);fontColor=#333333;strokeColor=#666666;" parent="Q-pru-dwEbLBsa_V41_M-191" vertex="1">
          <mxGeometry x="110" y="30" width="20" height="20" as="geometry" />
        </mxCell>
        <mxCell id="Q-pru-dwEbLBsa_V41_M-370" style="edgeStyle=orthogonalEdgeStyle;rounded=0;orthogonalLoop=1;jettySize=auto;html=1;exitX=0.5;exitY=1;exitDx=0;exitDy=0;" parent="Q-pru-dwEbLBsa_V41_M-191" source="Q-pru-dwEbLBsa_V41_M-371" edge="1">
          <mxGeometry relative="1" as="geometry">
            <mxPoint x="119.88888888888891" y="306.31" as="targetPoint" />
          </mxGeometry>
        </mxCell>
        <mxCell id="gyEde0tI7jQMU0-lnPvx-5" style="edgeStyle=orthogonalEdgeStyle;rounded=0;orthogonalLoop=1;jettySize=auto;html=1;exitX=0.5;exitY=1;exitDx=0;exitDy=0;entryX=0.5;entryY=0;entryDx=0;entryDy=0;" parent="Q-pru-dwEbLBsa_V41_M-191" source="Q-pru-dwEbLBsa_V41_M-202" target="gyEde0tI7jQMU0-lnPvx-4" edge="1">
          <mxGeometry relative="1" as="geometry" />
        </mxCell>
        <mxCell id="gyEde0tI7jQMU0-lnPvx-6" value="接続失敗" style="edgeLabel;html=1;align=center;verticalAlign=middle;resizable=0;points=[];" parent="gyEde0tI7jQMU0-lnPvx-5" vertex="1" connectable="0">
          <mxGeometry x="-0.0899" y="-3" relative="1" as="geometry">
            <mxPoint as="offset" />
          </mxGeometry>
        </mxCell>
        <mxCell id="Q-pru-dwEbLBsa_V41_M-202" value="" style="rhombus;whiteSpace=wrap;html=1;" parent="Q-pru-dwEbLBsa_V41_M-191" vertex="1">
          <mxGeometry x="110" y="145" width="20" height="20" as="geometry" />
        </mxCell>
        <mxCell id="Q-pru-dwEbLBsa_V41_M-203" style="edgeStyle=orthogonalEdgeStyle;rounded=0;orthogonalLoop=1;jettySize=auto;html=1;exitX=0.5;exitY=1;exitDx=0;exitDy=0;entryX=0.5;entryY=0;entryDx=0;entryDy=0;" parent="Q-pru-dwEbLBsa_V41_M-191" source="Q-pru-dwEbLBsa_V41_M-204" target="Q-pru-dwEbLBsa_V41_M-202" edge="1">
          <mxGeometry relative="1" as="geometry" />
        </mxCell>
        <mxCell id="Q-pru-dwEbLBsa_V41_M-204" value="&lt;div&gt;プレイヤー名表示し&lt;/div&gt;サーバに接続" style="rounded=0;whiteSpace=wrap;html=1;" parent="Q-pru-dwEbLBsa_V41_M-191" vertex="1">
          <mxGeometry x="60" y="90" width="120" height="30" as="geometry" />
        </mxCell>
        <mxCell id="Q-pru-dwEbLBsa_V41_M-376" style="edgeStyle=orthogonalEdgeStyle;rounded=0;orthogonalLoop=1;jettySize=auto;html=1;exitX=0.5;exitY=1;exitDx=0;exitDy=0;entryX=0.5;entryY=0;entryDx=0;entryDy=0;" parent="Q-pru-dwEbLBsa_V41_M-191" source="Q-pru-dwEbLBsa_V41_M-208" target="Q-pru-dwEbLBsa_V41_M-375" edge="1">
          <mxGeometry relative="1" as="geometry" />
        </mxCell>
        <mxCell id="Q-pru-dwEbLBsa_V41_M-377" value="「対局」へ" style="edgeLabel;html=1;align=center;verticalAlign=middle;resizable=0;points=[];" parent="Q-pru-dwEbLBsa_V41_M-376" vertex="1" connectable="0">
          <mxGeometry x="-0.2011" y="1" relative="1" as="geometry">
            <mxPoint as="offset" />
          </mxGeometry>
        </mxCell>
        <mxCell id="Q-pru-dwEbLBsa_V41_M-208" value="先手後手情報と名前の受信" style="rounded=0;whiteSpace=wrap;html=1;" parent="Q-pru-dwEbLBsa_V41_M-191" vertex="1">
          <mxGeometry x="30" y="397.5" width="150" height="20" as="geometry" />
        </mxCell>
        <mxCell id="Q-pru-dwEbLBsa_V41_M-371" value="" style="verticalLabelPosition=bottom;verticalAlign=top;html=1;shape=mxgraph.flowchart.or;" parent="Q-pru-dwEbLBsa_V41_M-191" vertex="1">
          <mxGeometry x="110" y="306.31" width="20" height="20" as="geometry" />
        </mxCell>
        <mxCell id="Q-pru-dwEbLBsa_V41_M-375" value="" style="ellipse;html=1;shape=endState;fillColor=#000000;strokeColor=#000000;" parent="Q-pru-dwEbLBsa_V41_M-191" vertex="1">
          <mxGeometry x="94.5" y="562.5" width="21" height="20" as="geometry" />
        </mxCell>
        <mxCell id="610yPSSwg8hQJmwwh6tJ-5" style="edgeStyle=orthogonalEdgeStyle;rounded=0;orthogonalLoop=1;jettySize=auto;html=1;exitX=0.75;exitY=1;exitDx=0;exitDy=0;" parent="Q-pru-dwEbLBsa_V41_M-191" source="610yPSSwg8hQJmwwh6tJ-7" edge="1">
          <mxGeometry relative="1" as="geometry">
            <mxPoint x="210.33333333333326" y="452.5" as="targetPoint" />
          </mxGeometry>
        </mxCell>
        <mxCell id="GYKAaWRlJNHaWqEl0ovD-2" style="edgeStyle=orthogonalEdgeStyle;rounded=0;orthogonalLoop=1;jettySize=auto;html=1;exitX=0.75;exitY=1;exitDx=0;exitDy=0;" edge="1" parent="Q-pru-dwEbLBsa_V41_M-191" source="610yPSSwg8hQJmwwh6tJ-4">
          <mxGeometry relative="1" as="geometry">
            <mxPoint x="210.23076923076928" y="422.5" as="targetPoint" />
          </mxGeometry>
        </mxCell>
        <mxCell id="610yPSSwg8hQJmwwh6tJ-4" value="接続確認のため、5秒毎にサーバへ信号を送る処理を開始" style="rounded=0;whiteSpace=wrap;html=1;" parent="Q-pru-dwEbLBsa_V41_M-191" vertex="1">
          <mxGeometry x="120" y="332.5" width="120" height="47.5" as="geometry" />
        </mxCell>
        <mxCell id="610yPSSwg8hQJmwwh6tJ-9" style="edgeStyle=orthogonalEdgeStyle;rounded=0;orthogonalLoop=1;jettySize=auto;html=1;exitX=0;exitY=0.5;exitDx=0;exitDy=0;entryX=0;entryY=0.5;entryDx=0;entryDy=0;" parent="Q-pru-dwEbLBsa_V41_M-191" source="610yPSSwg8hQJmwwh6tJ-7" target="610yPSSwg8hQJmwwh6tJ-4" edge="1">
          <mxGeometry relative="1" as="geometry">
            <Array as="points">
              <mxPoint x="20" y="458" />
              <mxPoint x="20" y="356" />
            </Array>
          </mxGeometry>
        </mxCell>
        <mxCell id="610yPSSwg8hQJmwwh6tJ-10" value="送れている" style="edgeLabel;html=1;align=center;verticalAlign=middle;resizable=0;points=[];" parent="610yPSSwg8hQJmwwh6tJ-9" vertex="1" connectable="0">
          <mxGeometry x="-0.1973" y="1" relative="1" as="geometry">
            <mxPoint as="offset" />
          </mxGeometry>
        </mxCell>
        <mxCell id="610yPSSwg8hQJmwwh6tJ-11" style="edgeStyle=orthogonalEdgeStyle;rounded=0;orthogonalLoop=1;jettySize=auto;html=1;exitX=0.5;exitY=1;exitDx=0;exitDy=0;entryX=0.607;entryY=0.149;entryDx=0;entryDy=0;entryPerimeter=0;" parent="Q-pru-dwEbLBsa_V41_M-191" source="610yPSSwg8hQJmwwh6tJ-7" target="610yPSSwg8hQJmwwh6tJ-6" edge="1">
          <mxGeometry relative="1" as="geometry" />
        </mxCell>
        <mxCell id="610yPSSwg8hQJmwwh6tJ-14" value="送れない" style="edgeLabel;html=1;align=center;verticalAlign=middle;resizable=0;points=[];" parent="610yPSSwg8hQJmwwh6tJ-11" vertex="1" connectable="0">
          <mxGeometry x="-0.3528" y="1" relative="1" as="geometry">
            <mxPoint as="offset" />
          </mxGeometry>
        </mxCell>
        <mxCell id="610yPSSwg8hQJmwwh6tJ-7" value="" style="rhombus;whiteSpace=wrap;html=1;" parent="Q-pru-dwEbLBsa_V41_M-191" vertex="1">
          <mxGeometry x="200" y="447.5" width="20" height="20" as="geometry" />
        </mxCell>
        <mxCell id="610yPSSwg8hQJmwwh6tJ-6" value="エラー通知" style="rounded=0;whiteSpace=wrap;html=1;" parent="Q-pru-dwEbLBsa_V41_M-191" vertex="1">
          <mxGeometry x="160" y="502.5" width="80" height="17.5" as="geometry" />
        </mxCell>
        <mxCell id="610yPSSwg8hQJmwwh6tJ-12" value="" style="verticalLabelPosition=bottom;verticalAlign=top;html=1;shape=mxgraph.flowchart.or;" parent="Q-pru-dwEbLBsa_V41_M-191" vertex="1">
          <mxGeometry x="200" y="562.5" width="20" height="20" as="geometry" />
        </mxCell>
        <mxCell id="610yPSSwg8hQJmwwh6tJ-13" style="edgeStyle=orthogonalEdgeStyle;rounded=0;orthogonalLoop=1;jettySize=auto;html=1;exitX=0.618;exitY=0.973;exitDx=0;exitDy=0;entryX=0.5;entryY=0;entryDx=0;entryDy=0;entryPerimeter=0;exitPerimeter=0;" parent="Q-pru-dwEbLBsa_V41_M-191" source="610yPSSwg8hQJmwwh6tJ-6" target="610yPSSwg8hQJmwwh6tJ-12" edge="1">
          <mxGeometry relative="1" as="geometry" />
        </mxCell>
        <mxCell id="610yPSSwg8hQJmwwh6tJ-15" value="プレイ方法選択へ" style="edgeLabel;html=1;align=center;verticalAlign=middle;resizable=0;points=[];" parent="610yPSSwg8hQJmwwh6tJ-13" vertex="1" connectable="0">
          <mxGeometry x="-0.0503" relative="1" as="geometry">
            <mxPoint as="offset" />
          </mxGeometry>
        </mxCell>
        <mxCell id="610yPSSwg8hQJmwwh6tJ-1" value="" style="endArrow=none;html=1;rounded=0;" parent="Q-pru-dwEbLBsa_V41_M-191" edge="1">
          <mxGeometry width="50" height="50" relative="1" as="geometry">
            <mxPoint x="160" y="222.5" as="sourcePoint" />
            <mxPoint x="250" y="222.5" as="targetPoint" />
            <Array as="points" />
          </mxGeometry>
        </mxCell>
        <mxCell id="gyEde0tI7jQMU0-lnPvx-2" style="edgeStyle=orthogonalEdgeStyle;rounded=0;orthogonalLoop=1;jettySize=auto;html=1;exitX=0.5;exitY=1;exitDx=0;exitDy=0;" parent="Q-pru-dwEbLBsa_V41_M-191" source="gyEde0tI7jQMU0-lnPvx-1" edge="1">
          <mxGeometry relative="1" as="geometry">
            <mxPoint x="214.1428571428571" y="222.5" as="targetPoint" />
          </mxGeometry>
        </mxCell>
        <mxCell id="gyEde0tI7jQMU0-lnPvx-1" value="プレイヤー名送信" style="rounded=0;whiteSpace=wrap;html=1;" parent="Q-pru-dwEbLBsa_V41_M-191" vertex="1">
          <mxGeometry x="164" y="172.5" width="100" height="20" as="geometry" />
        </mxCell>
        <mxCell id="gyEde0tI7jQMU0-lnPvx-4" value="エラー通知" style="rounded=0;whiteSpace=wrap;html=1;" parent="Q-pru-dwEbLBsa_V41_M-191" vertex="1">
          <mxGeometry x="85" y="222.5" width="70" height="22.5" as="geometry" />
        </mxCell>
        <mxCell id="gyEde0tI7jQMU0-lnPvx-7" style="edgeStyle=orthogonalEdgeStyle;rounded=0;orthogonalLoop=1;jettySize=auto;html=1;exitX=0.5;exitY=1;exitDx=0;exitDy=0;entryX=0.5;entryY=0;entryDx=0;entryDy=0;entryPerimeter=0;" parent="Q-pru-dwEbLBsa_V41_M-191" source="gyEde0tI7jQMU0-lnPvx-4" target="Q-pru-dwEbLBsa_V41_M-371" edge="1">
          <mxGeometry relative="1" as="geometry" />
        </mxCell>
        <mxCell id="gyEde0tI7jQMU0-lnPvx-8" value="プレイ方法選択へ" style="edgeLabel;html=1;align=center;verticalAlign=middle;resizable=0;points=[];" parent="gyEde0tI7jQMU0-lnPvx-7" vertex="1" connectable="0">
          <mxGeometry x="-0.0221" y="-3" relative="1" as="geometry">
            <mxPoint as="offset" />
          </mxGeometry>
        </mxCell>
        <mxCell id="Q-pru-dwEbLBsa_V41_M-250" value="サーバ" style="swimlane;startSize=20;html=1;" parent="Q-pru-dwEbLBsa_V41_M-183" vertex="1">
          <mxGeometry x="410" y="20" width="210" height="592.5" as="geometry" />
        </mxCell>
        <mxCell id="wyX1YYR0f_qy9vhgp-f1-7" style="edgeStyle=orthogonalEdgeStyle;rounded=0;orthogonalLoop=1;jettySize=auto;html=1;entryX=0.5;entryY=0;entryDx=0;entryDy=0;" parent="Q-pru-dwEbLBsa_V41_M-250" target="wyX1YYR0f_qy9vhgp-f1-5" edge="1">
          <mxGeometry relative="1" as="geometry">
            <mxPoint x="100.01" y="282.5" as="sourcePoint" />
          </mxGeometry>
        </mxCell>
        <mxCell id="wyX1YYR0f_qy9vhgp-f1-2" value="クライアントプログラムの接続" style="rounded=0;whiteSpace=wrap;html=1;" parent="Q-pru-dwEbLBsa_V41_M-250" vertex="1">
          <mxGeometry x="12.51" y="272.5" width="170" height="20" as="geometry" />
        </mxCell>
        <mxCell id="wyX1YYR0f_qy9vhgp-f1-8" style="edgeStyle=orthogonalEdgeStyle;rounded=0;orthogonalLoop=1;jettySize=auto;html=1;exitX=0.5;exitY=1;exitDx=0;exitDy=0;entryX=0.5;entryY=0;entryDx=0;entryDy=0;" parent="Q-pru-dwEbLBsa_V41_M-250" source="wyX1YYR0f_qy9vhgp-f1-5" target="wyX1YYR0f_qy9vhgp-f1-6" edge="1">
          <mxGeometry relative="1" as="geometry" />
        </mxCell>
        <mxCell id="wyX1YYR0f_qy9vhgp-f1-5" value="クライアント接続状態の確認" style="rounded=0;whiteSpace=wrap;html=1;" parent="Q-pru-dwEbLBsa_V41_M-250" vertex="1">
          <mxGeometry x="12.51" y="310" width="170" height="20" as="geometry" />
        </mxCell>
        <mxCell id="wyX1YYR0f_qy9vhgp-f1-9" style="edgeStyle=orthogonalEdgeStyle;rounded=0;orthogonalLoop=1;jettySize=auto;html=1;exitX=1;exitY=0.5;exitDx=0;exitDy=0;entryX=1;entryY=0.5;entryDx=0;entryDy=0;" parent="Q-pru-dwEbLBsa_V41_M-250" source="wyX1YYR0f_qy9vhgp-f1-6" target="wyX1YYR0f_qy9vhgp-f1-2" edge="1">
          <mxGeometry relative="1" as="geometry">
            <Array as="points">
              <mxPoint x="197.51" y="360.5" />
              <mxPoint x="197.51" y="282.5" />
            </Array>
          </mxGeometry>
        </mxCell>
        <mxCell id="wyX1YYR0f_qy9vhgp-f1-10" value="1台以下" style="edgeLabel;html=1;align=center;verticalAlign=middle;resizable=0;points=[];" parent="wyX1YYR0f_qy9vhgp-f1-9" vertex="1" connectable="0">
          <mxGeometry x="-0.5553" y="1" relative="1" as="geometry">
            <mxPoint as="offset" />
          </mxGeometry>
        </mxCell>
        <mxCell id="wyX1YYR0f_qy9vhgp-f1-42" style="edgeStyle=orthogonalEdgeStyle;rounded=0;orthogonalLoop=1;jettySize=auto;html=1;exitX=0.5;exitY=1;exitDx=0;exitDy=0;" parent="Q-pru-dwEbLBsa_V41_M-250" source="wyX1YYR0f_qy9vhgp-f1-6" target="wyX1YYR0f_qy9vhgp-f1-41" edge="1">
          <mxGeometry relative="1" as="geometry" />
        </mxCell>
        <mxCell id="wyX1YYR0f_qy9vhgp-f1-43" value="2台接続" style="edgeLabel;html=1;align=center;verticalAlign=middle;resizable=0;points=[];" parent="wyX1YYR0f_qy9vhgp-f1-42" vertex="1" connectable="0">
          <mxGeometry x="0.0794" relative="1" as="geometry">
            <mxPoint as="offset" />
          </mxGeometry>
        </mxCell>
        <mxCell id="wyX1YYR0f_qy9vhgp-f1-6" value="" style="rhombus;whiteSpace=wrap;html=1;" parent="Q-pru-dwEbLBsa_V41_M-250" vertex="1">
          <mxGeometry x="87.51" y="350" width="20" height="20" as="geometry" />
        </mxCell>
        <mxCell id="wyX1YYR0f_qy9vhgp-f1-41" value="先手後手情報と相手の名前送信" style="rounded=0;whiteSpace=wrap;html=1;" parent="Q-pru-dwEbLBsa_V41_M-250" vertex="1">
          <mxGeometry x="12.51" y="397.5" width="170" height="20" as="geometry" />
        </mxCell>
        <mxCell id="610yPSSwg8hQJmwwh6tJ-2" value="" style="endArrow=classic;html=1;rounded=0;entryX=0.5;entryY=0;entryDx=0;entryDy=0;" parent="Q-pru-dwEbLBsa_V41_M-250" target="wyX1YYR0f_qy9vhgp-f1-2" edge="1">
          <mxGeometry width="50" height="50" relative="1" as="geometry">
            <mxPoint x="-30" y="222.5" as="sourcePoint" />
            <mxPoint x="120" y="92.5" as="targetPoint" />
            <Array as="points">
              <mxPoint x="-30" y="242.5" />
              <mxPoint x="98" y="242.5" />
            </Array>
          </mxGeometry>
        </mxCell>
        <mxCell id="GYKAaWRlJNHaWqEl0ovD-1" value="" style="endArrow=none;html=1;rounded=0;" edge="1" parent="Q-pru-dwEbLBsa_V41_M-250">
          <mxGeometry width="50" height="50" relative="1" as="geometry">
            <mxPoint x="-80" y="422.5" as="sourcePoint" />
            <mxPoint x="-30" y="422.5" as="targetPoint" />
          </mxGeometry>
        </mxCell>
        <mxCell id="GYKAaWRlJNHaWqEl0ovD-3" value="" style="endArrow=classic;html=1;rounded=0;entryX=0.5;entryY=0;entryDx=0;entryDy=0;" edge="1" parent="Q-pru-dwEbLBsa_V41_M-250" target="610yPSSwg8hQJmwwh6tJ-7">
          <mxGeometry width="50" height="50" relative="1" as="geometry">
            <mxPoint x="-60" y="422.5" as="sourcePoint" />
            <mxPoint x="100" y="412.5" as="targetPoint" />
          </mxGeometry>
        </mxCell>
        <mxCell id="GYKAaWRlJNHaWqEl0ovD-4" value="" style="endArrow=classic;html=1;rounded=0;" edge="1" parent="Q-pru-dwEbLBsa_V41_M-250">
          <mxGeometry width="50" height="50" relative="1" as="geometry">
            <mxPoint x="-40" y="422.5" as="sourcePoint" />
            <mxPoint x="90" y="462.5" as="targetPoint" />
            <Array as="points">
              <mxPoint x="-40" y="442.5" />
              <mxPoint x="90" y="442.5" />
            </Array>
          </mxGeometry>
        </mxCell>
        <mxCell id="GYKAaWRlJNHaWqEl0ovD-5" value="信号を受信" style="rounded=0;whiteSpace=wrap;html=1;" vertex="1" parent="Q-pru-dwEbLBsa_V41_M-250">
          <mxGeometry x="50" y="462.5" width="80" height="27.5" as="geometry" />
        </mxCell>
        <mxCell id="Q-pru-dwEbLBsa_V41_M-368" style="edgeStyle=orthogonalEdgeStyle;rounded=0;orthogonalLoop=1;jettySize=auto;html=1;exitX=0.5;exitY=1;exitDx=0;exitDy=0;entryX=1;entryY=0.5;entryDx=0;entryDy=0;" parent="Q-pru-dwEbLBsa_V41_M-183" source="Q-pru-dwEbLBsa_V41_M-193" target="Q-pru-dwEbLBsa_V41_M-186" edge="1">
          <mxGeometry relative="1" as="geometry" />
        </mxCell>
        <mxCell id="Q-pru-dwEbLBsa_V41_M-369" style="edgeStyle=orthogonalEdgeStyle;rounded=0;orthogonalLoop=1;jettySize=auto;html=1;exitX=0.5;exitY=1;exitDx=0;exitDy=0;entryX=0;entryY=0.5;entryDx=0;entryDy=0;" parent="Q-pru-dwEbLBsa_V41_M-183" source="Q-pru-dwEbLBsa_V41_M-186" target="Q-pru-dwEbLBsa_V41_M-204" edge="1">
          <mxGeometry relative="1" as="geometry" />
        </mxCell>
        <mxCell id="Q-pru-dwEbLBsa_V41_M-205" value="" style="endArrow=classic;html=1;rounded=0;exitX=1;exitY=0.5;exitDx=0;exitDy=0;" parent="Q-pru-dwEbLBsa_V41_M-183" source="Q-pru-dwEbLBsa_V41_M-202" edge="1">
          <mxGeometry width="50" height="50" relative="1" as="geometry">
            <mxPoint x="391" y="340" as="sourcePoint" />
            <mxPoint x="350" y="192.5" as="targetPoint" />
            <Array as="points">
              <mxPoint x="350" y="175.5" />
            </Array>
          </mxGeometry>
        </mxCell>
        <mxCell id="Q-pru-dwEbLBsa_V41_M-206" value="接続成功" style="edgeLabel;html=1;align=center;verticalAlign=middle;resizable=0;points=[];" parent="Q-pru-dwEbLBsa_V41_M-205" vertex="1" connectable="0">
          <mxGeometry x="-0.1983" relative="1" as="geometry">
            <mxPoint as="offset" />
          </mxGeometry>
        </mxCell>
        <mxCell id="Q-pru-dwEbLBsa_V41_M-209" value="" style="endArrow=classic;html=1;rounded=0;entryX=1;entryY=0.5;entryDx=0;entryDy=0;exitX=0;exitY=0.5;exitDx=0;exitDy=0;" parent="Q-pru-dwEbLBsa_V41_M-183" source="wyX1YYR0f_qy9vhgp-f1-41" target="Q-pru-dwEbLBsa_V41_M-208" edge="1">
          <mxGeometry width="50" height="50" relative="1" as="geometry">
            <mxPoint x="430" y="300" as="sourcePoint" />
            <mxPoint x="430" y="430" as="targetPoint" />
          </mxGeometry>
        </mxCell>
        <mxCell id="Q-pru-dwEbLBsa_V41_M-274" value="CPUと対局する" style="swimlane;childLayout=stackLayout;resizeParent=1;resizeParentMax=0;startSize=20;html=1;" parent="1" vertex="1">
          <mxGeometry x="680" y="20" width="730" height="600" as="geometry" />
        </mxCell>
        <mxCell id="Q-pru-dwEbLBsa_V41_M-275" value="プレイヤー" style="swimlane;startSize=20;html=1;" parent="Q-pru-dwEbLBsa_V41_M-274" vertex="1">
          <mxGeometry y="20" width="130" height="580" as="geometry" />
        </mxCell>
        <mxCell id="gyEde0tI7jQMU0-lnPvx-10" style="edgeStyle=orthogonalEdgeStyle;rounded=0;orthogonalLoop=1;jettySize=auto;html=1;exitX=0.5;exitY=1;exitDx=0;exitDy=0;entryX=0.5;entryY=0;entryDx=0;entryDy=0;" parent="Q-pru-dwEbLBsa_V41_M-275" source="Q-pru-dwEbLBsa_V41_M-278" target="gyEde0tI7jQMU0-lnPvx-9" edge="1">
          <mxGeometry relative="1" as="geometry" />
        </mxCell>
        <mxCell id="Q-pru-dwEbLBsa_V41_M-278" value="設置場所の入力" style="rounded=0;whiteSpace=wrap;html=1;" parent="Q-pru-dwEbLBsa_V41_M-275" vertex="1">
          <mxGeometry x="5" y="125" width="120" height="25" as="geometry" />
        </mxCell>
        <mxCell id="gyEde0tI7jQMU0-lnPvx-9" value="" style="rhombus;whiteSpace=wrap;html=1;" parent="Q-pru-dwEbLBsa_V41_M-275" vertex="1">
          <mxGeometry x="55" y="170" width="20" height="20" as="geometry" />
        </mxCell>
        <mxCell id="Q-pru-dwEbLBsa_V41_M-282" value="クライアントプログラム" style="swimlane;startSize=20;html=1;" parent="Q-pru-dwEbLBsa_V41_M-274" vertex="1">
          <mxGeometry x="130" y="20" width="500" height="580" as="geometry" />
        </mxCell>
        <mxCell id="Q-pru-dwEbLBsa_V41_M-298" style="edgeStyle=orthogonalEdgeStyle;rounded=0;orthogonalLoop=1;jettySize=auto;html=1;exitX=0.5;exitY=1;exitDx=0;exitDy=0;entryX=0.5;entryY=0;entryDx=0;entryDy=0;" parent="Q-pru-dwEbLBsa_V41_M-282" source="Q-pru-dwEbLBsa_V41_M-382" target="Q-pru-dwEbLBsa_V41_M-302" edge="1">
          <mxGeometry relative="1" as="geometry">
            <mxPoint x="215" y="50" as="sourcePoint" />
          </mxGeometry>
        </mxCell>
        <mxCell id="Q-pru-dwEbLBsa_V41_M-301" style="edgeStyle=orthogonalEdgeStyle;rounded=0;orthogonalLoop=1;jettySize=auto;html=1;exitX=0.5;exitY=1;exitDx=0;exitDy=0;entryX=0.5;entryY=0;entryDx=0;entryDy=0;" parent="Q-pru-dwEbLBsa_V41_M-282" source="Q-pru-dwEbLBsa_V41_M-302" target="Q-pru-dwEbLBsa_V41_M-303" edge="1">
          <mxGeometry relative="1" as="geometry" />
        </mxCell>
        <mxCell id="Q-pru-dwEbLBsa_V41_M-302" value="盤面の表示" style="rounded=0;whiteSpace=wrap;html=1;" parent="Q-pru-dwEbLBsa_V41_M-282" vertex="1">
          <mxGeometry x="155" y="90" width="120" height="20" as="geometry" />
        </mxCell>
        <mxCell id="Q-pru-dwEbLBsa_V41_M-303" value="" style="rhombus;whiteSpace=wrap;html=1;" parent="Q-pru-dwEbLBsa_V41_M-282" vertex="1">
          <mxGeometry x="205" y="130" width="20" height="20" as="geometry" />
        </mxCell>
        <mxCell id="Q-pru-dwEbLBsa_V41_M-305" value="プレイヤーの入力を受け取る" style="rounded=0;whiteSpace=wrap;html=1;" parent="Q-pru-dwEbLBsa_V41_M-282" vertex="1">
          <mxGeometry x="64" y="160" width="120" height="40" as="geometry" />
        </mxCell>
        <mxCell id="Q-pru-dwEbLBsa_V41_M-312" style="edgeStyle=orthogonalEdgeStyle;rounded=0;orthogonalLoop=1;jettySize=auto;html=1;exitX=0.5;exitY=1;exitDx=0;exitDy=0;entryX=0.5;entryY=0;entryDx=0;entryDy=0;" parent="Q-pru-dwEbLBsa_V41_M-282" source="Q-pru-dwEbLBsa_V41_M-313" target="Q-pru-dwEbLBsa_V41_M-322" edge="1">
          <mxGeometry relative="1" as="geometry" />
        </mxCell>
        <mxCell id="Q-pru-dwEbLBsa_V41_M-313" value="盤面の変更" style="rounded=0;whiteSpace=wrap;html=1;" parent="Q-pru-dwEbLBsa_V41_M-282" vertex="1">
          <mxGeometry x="155" y="330" width="90" height="30" as="geometry" />
        </mxCell>
        <mxCell id="Q-pru-dwEbLBsa_V41_M-315" value="" style="endArrow=classic;html=1;rounded=0;exitX=0.5;exitY=1;exitDx=0;exitDy=0;entryX=0;entryY=0.5;entryDx=0;entryDy=0;" parent="Q-pru-dwEbLBsa_V41_M-282" source="Q-pru-dwEbLBsa_V41_M-305" target="Q-pru-dwEbLBsa_V41_M-313" edge="1">
          <mxGeometry width="50" height="50" relative="1" as="geometry">
            <mxPoint x="114" y="225" as="sourcePoint" />
            <mxPoint x="195" y="420" as="targetPoint" />
            <Array as="points">
              <mxPoint x="124" y="345" />
            </Array>
          </mxGeometry>
        </mxCell>
        <mxCell id="Q-pru-dwEbLBsa_V41_M-319" style="edgeStyle=orthogonalEdgeStyle;rounded=0;orthogonalLoop=1;jettySize=auto;html=1;exitX=0.5;exitY=1;exitDx=0;exitDy=0;entryX=1;entryY=0.5;entryDx=0;entryDy=0;" parent="Q-pru-dwEbLBsa_V41_M-282" source="Q-pru-dwEbLBsa_V41_M-320" target="Q-pru-dwEbLBsa_V41_M-313" edge="1">
          <mxGeometry relative="1" as="geometry" />
        </mxCell>
        <mxCell id="Q-pru-dwEbLBsa_V41_M-320" value="CPUの設置場所決定" style="rounded=0;whiteSpace=wrap;html=1;" parent="Q-pru-dwEbLBsa_V41_M-282" vertex="1">
          <mxGeometry x="215" y="210" width="120" height="30" as="geometry" />
        </mxCell>
        <mxCell id="Q-pru-dwEbLBsa_V41_M-321" style="edgeStyle=orthogonalEdgeStyle;rounded=0;orthogonalLoop=1;jettySize=auto;html=1;exitX=0.5;exitY=1;exitDx=0;exitDy=0;entryX=0.5;entryY=0;entryDx=0;entryDy=0;" parent="Q-pru-dwEbLBsa_V41_M-282" source="Q-pru-dwEbLBsa_V41_M-322" target="Q-pru-dwEbLBsa_V41_M-332" edge="1">
          <mxGeometry relative="1" as="geometry" />
        </mxCell>
        <mxCell id="Q-pru-dwEbLBsa_V41_M-322" value="終了判定" style="rounded=0;whiteSpace=wrap;html=1;" parent="Q-pru-dwEbLBsa_V41_M-282" vertex="1">
          <mxGeometry x="157.5" y="390" width="85" height="30" as="geometry" />
        </mxCell>
        <mxCell id="Q-pru-dwEbLBsa_V41_M-331" style="edgeStyle=orthogonalEdgeStyle;rounded=0;orthogonalLoop=1;jettySize=auto;html=1;exitX=0.5;exitY=1;exitDx=0;exitDy=0;entryX=0.5;entryY=0;entryDx=0;entryDy=0;" parent="Q-pru-dwEbLBsa_V41_M-282" source="Q-pru-dwEbLBsa_V41_M-332" target="Q-pru-dwEbLBsa_V41_M-385" edge="1">
          <mxGeometry relative="1" as="geometry">
            <mxPoint x="199.5" y="510" as="targetPoint" />
          </mxGeometry>
        </mxCell>
        <mxCell id="Q-pru-dwEbLBsa_V41_M-388" value="「勝敗判定」へ" style="edgeLabel;html=1;align=center;verticalAlign=middle;resizable=0;points=[];" parent="Q-pru-dwEbLBsa_V41_M-331" vertex="1" connectable="0">
          <mxGeometry x="0.4104" y="1" relative="1" as="geometry">
            <mxPoint as="offset" />
          </mxGeometry>
        </mxCell>
        <mxCell id="6YTczOYNobDPG6v779US-73" value="終了" style="edgeLabel;html=1;align=center;verticalAlign=middle;resizable=0;points=[];" parent="Q-pru-dwEbLBsa_V41_M-331" vertex="1" connectable="0">
          <mxGeometry x="-0.4189" y="3" relative="1" as="geometry">
            <mxPoint as="offset" />
          </mxGeometry>
        </mxCell>
        <mxCell id="Q-pru-dwEbLBsa_V41_M-332" value="" style="rhombus;whiteSpace=wrap;html=1;" parent="Q-pru-dwEbLBsa_V41_M-282" vertex="1">
          <mxGeometry x="190" y="440" width="20" height="20" as="geometry" />
        </mxCell>
        <mxCell id="Q-pru-dwEbLBsa_V41_M-333" value="" style="endArrow=classic;html=1;rounded=0;exitX=1;exitY=0.5;exitDx=0;exitDy=0;entryX=1;entryY=0.5;entryDx=0;entryDy=0;" parent="Q-pru-dwEbLBsa_V41_M-282" source="Q-pru-dwEbLBsa_V41_M-332" target="Q-pru-dwEbLBsa_V41_M-302" edge="1">
          <mxGeometry width="50" height="50" relative="1" as="geometry">
            <mxPoint x="395" y="540" as="sourcePoint" />
            <mxPoint x="445" y="490" as="targetPoint" />
            <Array as="points">
              <mxPoint x="345" y="450" />
              <mxPoint x="345" y="100" />
            </Array>
          </mxGeometry>
        </mxCell>
        <mxCell id="Q-pru-dwEbLBsa_V41_M-334" value="未終了" style="edgeLabel;html=1;align=center;verticalAlign=middle;resizable=0;points=[];" parent="Q-pru-dwEbLBsa_V41_M-333" vertex="1" connectable="0">
          <mxGeometry x="-0.8771" y="-2" relative="1" as="geometry">
            <mxPoint as="offset" />
          </mxGeometry>
        </mxCell>
        <mxCell id="Q-pru-dwEbLBsa_V41_M-382" value="" style="ellipse;whiteSpace=wrap;html=1;aspect=fixed;fillColor=light-dark(#000000, #1a1a1a);fontColor=#333333;strokeColor=#666666;" parent="Q-pru-dwEbLBsa_V41_M-282" vertex="1">
          <mxGeometry x="205" y="30" width="20" height="20" as="geometry" />
        </mxCell>
        <mxCell id="Q-pru-dwEbLBsa_V41_M-385" value="" style="ellipse;html=1;shape=endState;fillColor=#000000;strokeColor=#000000;" parent="Q-pru-dwEbLBsa_V41_M-282" vertex="1">
          <mxGeometry x="189" y="545" width="21" height="20" as="geometry" />
        </mxCell>
        <mxCell id="lTWDzN1GExT99pgy8QaT-3" value="" style="edgeStyle=orthogonalEdgeStyle;rounded=0;orthogonalLoop=1;jettySize=auto;html=1;exitX=1;exitY=0.5;exitDx=0;exitDy=0;entryX=0.5;entryY=0;entryDx=0;entryDy=0;" parent="Q-pru-dwEbLBsa_V41_M-282" source="Q-pru-dwEbLBsa_V41_M-303" target="Q-pru-dwEbLBsa_V41_M-320" edge="1">
          <mxGeometry relative="1" as="geometry">
            <mxPoint x="290" y="140" as="targetPoint" />
            <mxPoint x="1035" y="180" as="sourcePoint" />
          </mxGeometry>
        </mxCell>
        <mxCell id="lTWDzN1GExT99pgy8QaT-5" value="相手の番" style="edgeLabel;html=1;align=center;verticalAlign=middle;resizable=0;points=[];" parent="lTWDzN1GExT99pgy8QaT-3" vertex="1" connectable="0">
          <mxGeometry x="-0.2444" relative="1" as="geometry">
            <mxPoint as="offset" />
          </mxGeometry>
        </mxCell>
        <mxCell id="gyEde0tI7jQMU0-lnPvx-15" value="" style="ellipse;html=1;shape=endState;fillColor=#000000;strokeColor=#000000;" parent="Q-pru-dwEbLBsa_V41_M-282" vertex="1">
          <mxGeometry x="60" y="480" width="21" height="20" as="geometry" />
        </mxCell>
        <mxCell id="gyEde0tI7jQMU0-lnPvx-18" style="edgeStyle=orthogonalEdgeStyle;rounded=0;orthogonalLoop=1;jettySize=auto;html=1;exitX=0.5;exitY=1;exitDx=0;exitDy=0;entryX=0.5;entryY=0;entryDx=0;entryDy=0;" parent="Q-pru-dwEbLBsa_V41_M-282" source="gyEde0tI7jQMU0-lnPvx-17" target="gyEde0tI7jQMU0-lnPvx-15" edge="1">
          <mxGeometry relative="1" as="geometry" />
        </mxCell>
        <mxCell id="gyEde0tI7jQMU0-lnPvx-19" value="プレイ方法選択へ" style="edgeLabel;html=1;align=center;verticalAlign=middle;resizable=0;points=[];" parent="gyEde0tI7jQMU0-lnPvx-18" vertex="1" connectable="0">
          <mxGeometry x="-0.1228" relative="1" as="geometry">
            <mxPoint as="offset" />
          </mxGeometry>
        </mxCell>
        <mxCell id="gyEde0tI7jQMU0-lnPvx-17" value="対局プログラムを終了" style="rounded=0;whiteSpace=wrap;html=1;" parent="Q-pru-dwEbLBsa_V41_M-282" vertex="1">
          <mxGeometry x="21" y="390" width="99" height="30" as="geometry" />
        </mxCell>
        <mxCell id="Q-pru-dwEbLBsa_V41_M-341" value="サーバ" style="swimlane;startSize=20;html=1;" parent="Q-pru-dwEbLBsa_V41_M-274" vertex="1">
          <mxGeometry x="630" y="20" width="100" height="580" as="geometry" />
        </mxCell>
        <mxCell id="Q-pru-dwEbLBsa_V41_M-351" style="edgeStyle=orthogonalEdgeStyle;rounded=0;orthogonalLoop=1;jettySize=auto;html=1;exitX=0;exitY=0.5;exitDx=0;exitDy=0;entryX=1;entryY=0.5;entryDx=0;entryDy=0;" parent="Q-pru-dwEbLBsa_V41_M-274" source="Q-pru-dwEbLBsa_V41_M-303" target="Q-pru-dwEbLBsa_V41_M-278" edge="1">
          <mxGeometry relative="1" as="geometry">
            <mxPoint x="170" y="160" as="targetPoint" />
          </mxGeometry>
        </mxCell>
        <mxCell id="Q-pru-dwEbLBsa_V41_M-352" value="自分の番" style="edgeLabel;html=1;align=center;verticalAlign=middle;resizable=0;points=[];" parent="Q-pru-dwEbLBsa_V41_M-351" vertex="1" connectable="0">
          <mxGeometry x="-0.0909" relative="1" as="geometry">
            <mxPoint as="offset" />
          </mxGeometry>
        </mxCell>
        <mxCell id="gyEde0tI7jQMU0-lnPvx-11" style="edgeStyle=orthogonalEdgeStyle;rounded=0;orthogonalLoop=1;jettySize=auto;html=1;exitX=1;exitY=0.5;exitDx=0;exitDy=0;entryX=0;entryY=0.5;entryDx=0;entryDy=0;" parent="Q-pru-dwEbLBsa_V41_M-274" source="gyEde0tI7jQMU0-lnPvx-9" target="Q-pru-dwEbLBsa_V41_M-305" edge="1">
          <mxGeometry relative="1" as="geometry" />
        </mxCell>
        <mxCell id="gyEde0tI7jQMU0-lnPvx-12" value="入力される" style="edgeLabel;html=1;align=center;verticalAlign=middle;resizable=0;points=[];" parent="gyEde0tI7jQMU0-lnPvx-11" vertex="1" connectable="0">
          <mxGeometry x="-0.2941" y="1" relative="1" as="geometry">
            <mxPoint as="offset" />
          </mxGeometry>
        </mxCell>
        <mxCell id="gyEde0tI7jQMU0-lnPvx-13" style="edgeStyle=orthogonalEdgeStyle;rounded=0;orthogonalLoop=1;jettySize=auto;html=1;exitX=0.5;exitY=1;exitDx=0;exitDy=0;entryX=0.5;entryY=0;entryDx=0;entryDy=0;" parent="Q-pru-dwEbLBsa_V41_M-274" source="gyEde0tI7jQMU0-lnPvx-9" target="gyEde0tI7jQMU0-lnPvx-17" edge="1">
          <mxGeometry relative="1" as="geometry">
            <mxPoint x="200" y="380" as="targetPoint" />
          </mxGeometry>
        </mxCell>
        <mxCell id="gyEde0tI7jQMU0-lnPvx-14" value="退出が選択される" style="edgeLabel;html=1;align=center;verticalAlign=middle;resizable=0;points=[];" parent="gyEde0tI7jQMU0-lnPvx-13" vertex="1" connectable="0">
          <mxGeometry x="-0.7209" relative="1" as="geometry">
            <mxPoint y="1" as="offset" />
          </mxGeometry>
        </mxCell>
        <mxCell id="Q-pru-dwEbLBsa_V41_M-92" value="勝敗判定" style="swimlane;childLayout=stackLayout;resizeParent=1;resizeParentMax=0;startSize=20;html=1;" parent="1" vertex="1">
          <mxGeometry x="750" y="660" width="590" height="280" as="geometry" />
        </mxCell>
        <mxCell id="Q-pru-dwEbLBsa_V41_M-93" value="プレイヤー" style="swimlane;startSize=20;html=1;" parent="Q-pru-dwEbLBsa_V41_M-92" vertex="1">
          <mxGeometry y="20" width="160" height="260" as="geometry" />
        </mxCell>
        <mxCell id="Q-pru-dwEbLBsa_V41_M-99" value="終了かスタート画面へ戻るか選択" style="rounded=0;whiteSpace=wrap;html=1;" parent="Q-pru-dwEbLBsa_V41_M-93" vertex="1">
          <mxGeometry x="20" y="67.5" width="120" height="40" as="geometry" />
        </mxCell>
        <mxCell id="Q-pru-dwEbLBsa_V41_M-100" value="クライアントプログラム" style="swimlane;startSize=20;html=1;" parent="Q-pru-dwEbLBsa_V41_M-92" vertex="1">
          <mxGeometry x="160" y="20" width="280" height="260" as="geometry" />
        </mxCell>
        <mxCell id="Q-pru-dwEbLBsa_V41_M-143" value="勝敗判定を出力" style="rounded=0;whiteSpace=wrap;html=1;" parent="Q-pru-dwEbLBsa_V41_M-100" vertex="1">
          <mxGeometry x="95" y="75" width="89" height="25" as="geometry" />
        </mxCell>
        <mxCell id="Q-pru-dwEbLBsa_V41_M-144" style="edgeStyle=orthogonalEdgeStyle;rounded=0;orthogonalLoop=1;jettySize=auto;html=1;exitX=0.5;exitY=1;exitDx=0;exitDy=0;entryX=0.5;entryY=0;entryDx=0;entryDy=0;" parent="Q-pru-dwEbLBsa_V41_M-100" source="Q-pru-dwEbLBsa_V41_M-148" target="Q-pru-dwEbLBsa_V41_M-158" edge="1">
          <mxGeometry relative="1" as="geometry" />
        </mxCell>
        <mxCell id="Q-pru-dwEbLBsa_V41_M-145" value="終了" style="edgeLabel;html=1;align=center;verticalAlign=middle;resizable=0;points=[];" parent="Q-pru-dwEbLBsa_V41_M-144" vertex="1" connectable="0">
          <mxGeometry x="-0.3324" y="2" relative="1" as="geometry">
            <mxPoint as="offset" />
          </mxGeometry>
        </mxCell>
        <mxCell id="Q-pru-dwEbLBsa_V41_M-392" style="edgeStyle=orthogonalEdgeStyle;rounded=0;orthogonalLoop=1;jettySize=auto;html=1;exitX=1;exitY=0.5;exitDx=0;exitDy=0;entryX=0;entryY=0.5;entryDx=0;entryDy=0;" parent="Q-pru-dwEbLBsa_V41_M-100" source="Q-pru-dwEbLBsa_V41_M-148" target="Q-pru-dwEbLBsa_V41_M-391" edge="1">
          <mxGeometry relative="1" as="geometry" />
        </mxCell>
        <mxCell id="Q-pru-dwEbLBsa_V41_M-395" value="プレイ方法の選択" style="edgeLabel;html=1;align=center;verticalAlign=middle;resizable=0;points=[];" parent="Q-pru-dwEbLBsa_V41_M-392" vertex="1" connectable="0">
          <mxGeometry x="0.02" relative="1" as="geometry">
            <mxPoint as="offset" />
          </mxGeometry>
        </mxCell>
        <mxCell id="Q-pru-dwEbLBsa_V41_M-148" value="" style="rhombus;whiteSpace=wrap;html=1;" parent="Q-pru-dwEbLBsa_V41_M-100" vertex="1">
          <mxGeometry x="70" y="155" width="20" height="20" as="geometry" />
        </mxCell>
        <mxCell id="Q-pru-dwEbLBsa_V41_M-158" value="" style="ellipse;html=1;shape=endState;fillColor=#000000;strokeColor=#000000;" parent="Q-pru-dwEbLBsa_V41_M-100" vertex="1">
          <mxGeometry x="70" y="220.00000000000006" width="21" height="20" as="geometry" />
        </mxCell>
        <mxCell id="Q-pru-dwEbLBsa_V41_M-390" style="edgeStyle=orthogonalEdgeStyle;rounded=0;orthogonalLoop=1;jettySize=auto;html=1;exitX=0.5;exitY=1;exitDx=0;exitDy=0;entryX=0.5;entryY=0;entryDx=0;entryDy=0;" parent="Q-pru-dwEbLBsa_V41_M-100" source="Q-pru-dwEbLBsa_V41_M-389" target="Q-pru-dwEbLBsa_V41_M-143" edge="1">
          <mxGeometry relative="1" as="geometry" />
        </mxCell>
        <mxCell id="Q-pru-dwEbLBsa_V41_M-389" value="" style="ellipse;whiteSpace=wrap;html=1;aspect=fixed;fillColor=light-dark(#000000, #1a1a1a);fontColor=#333333;strokeColor=#666666;" parent="Q-pru-dwEbLBsa_V41_M-100" vertex="1">
          <mxGeometry x="129" y="30" width="20" height="20" as="geometry" />
        </mxCell>
        <mxCell id="Q-pru-dwEbLBsa_V41_M-391" value="" style="ellipse;html=1;shape=endState;fillColor=#000000;strokeColor=#000000;" parent="Q-pru-dwEbLBsa_V41_M-100" vertex="1">
          <mxGeometry x="250" y="155" width="21" height="20" as="geometry" />
        </mxCell>
        <mxCell id="Q-pru-dwEbLBsa_V41_M-159" value="サーバ" style="swimlane;startSize=20;html=1;" parent="Q-pru-dwEbLBsa_V41_M-92" vertex="1">
          <mxGeometry x="440" y="20" width="150" height="260" as="geometry" />
        </mxCell>
        <mxCell id="Q-pru-dwEbLBsa_V41_M-172" style="edgeStyle=orthogonalEdgeStyle;rounded=0;orthogonalLoop=1;jettySize=auto;html=1;exitX=0;exitY=0.5;exitDx=0;exitDy=0;entryX=1;entryY=0.5;entryDx=0;entryDy=0;" parent="Q-pru-dwEbLBsa_V41_M-92" source="Q-pru-dwEbLBsa_V41_M-143" target="Q-pru-dwEbLBsa_V41_M-99" edge="1">
          <mxGeometry relative="1" as="geometry" />
        </mxCell>
        <mxCell id="Q-pru-dwEbLBsa_V41_M-173" style="edgeStyle=orthogonalEdgeStyle;rounded=0;orthogonalLoop=1;jettySize=auto;html=1;exitX=0.5;exitY=1;exitDx=0;exitDy=0;entryX=0.5;entryY=0;entryDx=0;entryDy=0;" parent="Q-pru-dwEbLBsa_V41_M-92" source="Q-pru-dwEbLBsa_V41_M-99" target="Q-pru-dwEbLBsa_V41_M-148" edge="1">
          <mxGeometry relative="1" as="geometry" />
        </mxCell>
        <mxCell id="6YTczOYNobDPG6v779US-3" value="ネット上で対局する" style="swimlane;childLayout=stackLayout;resizeParent=1;resizeParentMax=0;startSize=20;html=1;" parent="1" vertex="1">
          <mxGeometry x="1450" y="30" width="850" height="660" as="geometry" />
        </mxCell>
        <mxCell id="6YTczOYNobDPG6v779US-4" value="プレイヤー" style="swimlane;startSize=20;html=1;" parent="6YTczOYNobDPG6v779US-3" vertex="1">
          <mxGeometry y="20" width="130" height="640" as="geometry" />
        </mxCell>
        <mxCell id="gyEde0tI7jQMU0-lnPvx-21" style="edgeStyle=orthogonalEdgeStyle;rounded=0;orthogonalLoop=1;jettySize=auto;html=1;exitX=0.5;exitY=1;exitDx=0;exitDy=0;entryX=0.5;entryY=0;entryDx=0;entryDy=0;" parent="6YTczOYNobDPG6v779US-4" source="6YTczOYNobDPG6v779US-5" target="gyEde0tI7jQMU0-lnPvx-20" edge="1">
          <mxGeometry relative="1" as="geometry" />
        </mxCell>
        <mxCell id="6YTczOYNobDPG6v779US-5" value="設置場所の入力" style="rounded=0;whiteSpace=wrap;html=1;" parent="6YTczOYNobDPG6v779US-4" vertex="1">
          <mxGeometry x="5" y="125" width="120" height="25" as="geometry" />
        </mxCell>
        <mxCell id="gyEde0tI7jQMU0-lnPvx-20" value="" style="rhombus;whiteSpace=wrap;html=1;" parent="6YTczOYNobDPG6v779US-4" vertex="1">
          <mxGeometry x="55" y="170" width="20" height="20" as="geometry" />
        </mxCell>
        <mxCell id="6YTczOYNobDPG6v779US-10" value="クライアントプログラム" style="swimlane;startSize=20;html=1;" parent="6YTczOYNobDPG6v779US-3" vertex="1">
          <mxGeometry x="130" y="20" width="500" height="640" as="geometry" />
        </mxCell>
        <mxCell id="6YTczOYNobDPG6v779US-11" style="edgeStyle=orthogonalEdgeStyle;rounded=0;orthogonalLoop=1;jettySize=auto;html=1;exitX=0.5;exitY=1;exitDx=0;exitDy=0;entryX=0.5;entryY=0;entryDx=0;entryDy=0;" parent="6YTczOYNobDPG6v779US-10" source="6YTczOYNobDPG6v779US-42" target="6YTczOYNobDPG6v779US-13" edge="1">
          <mxGeometry relative="1" as="geometry">
            <mxPoint x="215" y="50" as="sourcePoint" />
          </mxGeometry>
        </mxCell>
        <mxCell id="6YTczOYNobDPG6v779US-12" style="edgeStyle=orthogonalEdgeStyle;rounded=0;orthogonalLoop=1;jettySize=auto;html=1;exitX=0.5;exitY=1;exitDx=0;exitDy=0;entryX=0.5;entryY=0;entryDx=0;entryDy=0;" parent="6YTczOYNobDPG6v779US-10" source="6YTczOYNobDPG6v779US-13" target="6YTczOYNobDPG6v779US-14" edge="1">
          <mxGeometry relative="1" as="geometry" />
        </mxCell>
        <mxCell id="6YTczOYNobDPG6v779US-13" value="盤面の表示" style="rounded=0;whiteSpace=wrap;html=1;" parent="6YTczOYNobDPG6v779US-10" vertex="1">
          <mxGeometry x="155" y="90" width="120" height="20" as="geometry" />
        </mxCell>
        <mxCell id="6YTczOYNobDPG6v779US-14" value="" style="rhombus;whiteSpace=wrap;html=1;" parent="6YTczOYNobDPG6v779US-10" vertex="1">
          <mxGeometry x="205" y="130" width="20" height="20" as="geometry" />
        </mxCell>
        <mxCell id="6YTczOYNobDPG6v779US-16" value="プレイヤーの入力を受け取る" style="rounded=0;whiteSpace=wrap;html=1;" parent="6YTczOYNobDPG6v779US-10" vertex="1">
          <mxGeometry x="64" y="160" width="120" height="40" as="geometry" />
        </mxCell>
        <mxCell id="6YTczOYNobDPG6v779US-17" value="" style="endArrow=none;html=1;rounded=0;" parent="6YTczOYNobDPG6v779US-10" edge="1">
          <mxGeometry width="50" height="50" relative="1" as="geometry">
            <mxPoint x="75" y="260" as="sourcePoint" />
            <mxPoint x="194" y="260" as="targetPoint" />
          </mxGeometry>
        </mxCell>
        <mxCell id="6YTczOYNobDPG6v779US-18" value="入力情報を送信" style="rounded=0;whiteSpace=wrap;html=1;" parent="6YTczOYNobDPG6v779US-10" vertex="1">
          <mxGeometry x="115" y="280" width="90" height="30" as="geometry" />
        </mxCell>
        <mxCell id="6YTczOYNobDPG6v779US-19" style="edgeStyle=orthogonalEdgeStyle;rounded=0;orthogonalLoop=1;jettySize=auto;html=1;exitX=0.5;exitY=1;exitDx=0;exitDy=0;" parent="6YTczOYNobDPG6v779US-10" source="6YTczOYNobDPG6v779US-16" edge="1">
          <mxGeometry relative="1" as="geometry">
            <mxPoint x="124" y="260" as="targetPoint" />
            <mxPoint x="124" y="235" as="sourcePoint" />
          </mxGeometry>
        </mxCell>
        <mxCell id="6YTczOYNobDPG6v779US-22" value="" style="endArrow=classic;html=1;rounded=0;entryX=0.5;entryY=0;entryDx=0;entryDy=0;" parent="6YTczOYNobDPG6v779US-10" target="6YTczOYNobDPG6v779US-18" edge="1">
          <mxGeometry width="50" height="50" relative="1" as="geometry">
            <mxPoint x="160" y="260" as="sourcePoint" />
            <mxPoint x="355" y="190" as="targetPoint" />
          </mxGeometry>
        </mxCell>
        <mxCell id="6YTczOYNobDPG6v779US-23" style="edgeStyle=orthogonalEdgeStyle;rounded=0;orthogonalLoop=1;jettySize=auto;html=1;exitX=0.5;exitY=1;exitDx=0;exitDy=0;entryX=0.5;entryY=0;entryDx=0;entryDy=0;" parent="6YTczOYNobDPG6v779US-10" source="6YTczOYNobDPG6v779US-24" target="6YTczOYNobDPG6v779US-33" edge="1">
          <mxGeometry relative="1" as="geometry" />
        </mxCell>
        <mxCell id="6YTczOYNobDPG6v779US-24" value="盤面の変更" style="rounded=0;whiteSpace=wrap;html=1;" parent="6YTczOYNobDPG6v779US-10" vertex="1">
          <mxGeometry x="155" y="330" width="90" height="30" as="geometry" />
        </mxCell>
        <mxCell id="6YTczOYNobDPG6v779US-25" value="" style="endArrow=classic;html=1;rounded=0;entryX=0;entryY=0.5;entryDx=0;entryDy=0;" parent="6YTczOYNobDPG6v779US-10" target="6YTczOYNobDPG6v779US-24" edge="1">
          <mxGeometry width="50" height="50" relative="1" as="geometry">
            <mxPoint x="85" y="260" as="sourcePoint" />
            <mxPoint x="145" y="340" as="targetPoint" />
            <Array as="points">
              <mxPoint x="85" y="345" />
            </Array>
          </mxGeometry>
        </mxCell>
        <mxCell id="6YTczOYNobDPG6v779US-28" style="edgeStyle=orthogonalEdgeStyle;rounded=0;orthogonalLoop=1;jettySize=auto;html=1;exitX=0.5;exitY=1;exitDx=0;exitDy=0;entryX=1;entryY=0.5;entryDx=0;entryDy=0;" parent="6YTczOYNobDPG6v779US-10" source="6YTczOYNobDPG6v779US-29" target="6YTczOYNobDPG6v779US-24" edge="1">
          <mxGeometry relative="1" as="geometry" />
        </mxCell>
        <mxCell id="6YTczOYNobDPG6v779US-29" value="相手の入力を受け取る" style="rounded=0;whiteSpace=wrap;html=1;" parent="6YTczOYNobDPG6v779US-10" vertex="1">
          <mxGeometry x="355" y="210" width="125" height="30" as="geometry" />
        </mxCell>
        <mxCell id="6YTczOYNobDPG6v779US-32" style="edgeStyle=orthogonalEdgeStyle;rounded=0;orthogonalLoop=1;jettySize=auto;html=1;exitX=0.5;exitY=1;exitDx=0;exitDy=0;entryX=0.5;entryY=0;entryDx=0;entryDy=0;" parent="6YTczOYNobDPG6v779US-10" source="6YTczOYNobDPG6v779US-33" target="6YTczOYNobDPG6v779US-36" edge="1">
          <mxGeometry relative="1" as="geometry" />
        </mxCell>
        <mxCell id="6YTczOYNobDPG6v779US-33" value="終了判定" style="rounded=0;whiteSpace=wrap;html=1;" parent="6YTczOYNobDPG6v779US-10" vertex="1">
          <mxGeometry x="157.5" y="390" width="85" height="30" as="geometry" />
        </mxCell>
        <mxCell id="6YTczOYNobDPG6v779US-36" value="" style="rhombus;whiteSpace=wrap;html=1;" parent="6YTczOYNobDPG6v779US-10" vertex="1">
          <mxGeometry x="190" y="440" width="20" height="20" as="geometry" />
        </mxCell>
        <mxCell id="6YTczOYNobDPG6v779US-37" value="" style="endArrow=classic;html=1;rounded=0;exitX=1;exitY=0.5;exitDx=0;exitDy=0;entryX=1;entryY=0.5;entryDx=0;entryDy=0;" parent="6YTczOYNobDPG6v779US-10" source="6YTczOYNobDPG6v779US-36" target="6YTczOYNobDPG6v779US-13" edge="1">
          <mxGeometry width="50" height="50" relative="1" as="geometry">
            <mxPoint x="395" y="540" as="sourcePoint" />
            <mxPoint x="445" y="490" as="targetPoint" />
            <Array as="points">
              <mxPoint x="345" y="450" />
              <mxPoint x="345" y="100" />
            </Array>
          </mxGeometry>
        </mxCell>
        <mxCell id="6YTczOYNobDPG6v779US-38" value="未終了" style="edgeLabel;html=1;align=center;verticalAlign=middle;resizable=0;points=[];" parent="6YTczOYNobDPG6v779US-37" vertex="1" connectable="0">
          <mxGeometry x="-0.8771" y="-2" relative="1" as="geometry">
            <mxPoint as="offset" />
          </mxGeometry>
        </mxCell>
        <mxCell id="610yPSSwg8hQJmwwh6tJ-18" style="edgeStyle=orthogonalEdgeStyle;rounded=0;orthogonalLoop=1;jettySize=auto;html=1;exitX=0.5;exitY=1;exitDx=0;exitDy=0;entryX=0.5;entryY=0;entryDx=0;entryDy=0;" parent="6YTczOYNobDPG6v779US-10" source="6YTczOYNobDPG6v779US-39" target="6YTczOYNobDPG6v779US-43" edge="1">
          <mxGeometry relative="1" as="geometry" />
        </mxCell>
        <mxCell id="610yPSSwg8hQJmwwh6tJ-19" value="勝敗判定へ" style="edgeLabel;html=1;align=center;verticalAlign=middle;resizable=0;points=[];" parent="610yPSSwg8hQJmwwh6tJ-18" vertex="1" connectable="0">
          <mxGeometry x="-0.1923" y="-1" relative="1" as="geometry">
            <mxPoint as="offset" />
          </mxGeometry>
        </mxCell>
        <mxCell id="6YTczOYNobDPG6v779US-39" value="５秒おきの信号の送信をやめ、通信切断" style="rounded=0;whiteSpace=wrap;html=1;" parent="6YTczOYNobDPG6v779US-10" vertex="1">
          <mxGeometry x="135" y="515" width="130" height="40" as="geometry" />
        </mxCell>
        <mxCell id="6YTczOYNobDPG6v779US-42" value="" style="ellipse;whiteSpace=wrap;html=1;aspect=fixed;fillColor=light-dark(#000000, #1a1a1a);fontColor=#333333;strokeColor=#666666;" parent="6YTczOYNobDPG6v779US-10" vertex="1">
          <mxGeometry x="205" y="30" width="20" height="20" as="geometry" />
        </mxCell>
        <mxCell id="6YTczOYNobDPG6v779US-43" value="" style="ellipse;html=1;shape=endState;fillColor=#000000;strokeColor=#000000;" parent="6YTczOYNobDPG6v779US-10" vertex="1">
          <mxGeometry x="189" y="610" width="21" height="20" as="geometry" />
        </mxCell>
        <mxCell id="6YTczOYNobDPG6v779US-49" value="" style="edgeStyle=orthogonalEdgeStyle;rounded=0;orthogonalLoop=1;jettySize=auto;html=1;exitX=1;exitY=0.5;exitDx=0;exitDy=0;entryX=0.5;entryY=0;entryDx=0;entryDy=0;" parent="6YTczOYNobDPG6v779US-10" source="6YTczOYNobDPG6v779US-14" target="6YTczOYNobDPG6v779US-29" edge="1">
          <mxGeometry relative="1" as="geometry">
            <mxPoint x="310" y="140" as="targetPoint" />
            <mxPoint x="1035" y="180" as="sourcePoint" />
          </mxGeometry>
        </mxCell>
        <mxCell id="6YTczOYNobDPG6v779US-50" value="相手の番" style="edgeLabel;html=1;align=center;verticalAlign=middle;resizable=0;points=[];" parent="6YTczOYNobDPG6v779US-49" vertex="1" connectable="0">
          <mxGeometry x="-0.2444" relative="1" as="geometry">
            <mxPoint as="offset" />
          </mxGeometry>
        </mxCell>
        <mxCell id="610yPSSwg8hQJmwwh6tJ-16" style="edgeStyle=orthogonalEdgeStyle;rounded=0;orthogonalLoop=1;jettySize=auto;html=1;exitX=0.5;exitY=1;exitDx=0;exitDy=0;entryX=0.5;entryY=0;entryDx=0;entryDy=0;" parent="6YTczOYNobDPG6v779US-10" source="6YTczOYNobDPG6v779US-36" target="6YTczOYNobDPG6v779US-39" edge="1">
          <mxGeometry relative="1" as="geometry" />
        </mxCell>
        <mxCell id="610yPSSwg8hQJmwwh6tJ-17" value="終了" style="edgeLabel;html=1;align=center;verticalAlign=middle;resizable=0;points=[];" parent="610yPSSwg8hQJmwwh6tJ-16" vertex="1" connectable="0">
          <mxGeometry x="-0.2272" y="-1" relative="1" as="geometry">
            <mxPoint x="1" y="-1" as="offset" />
          </mxGeometry>
        </mxCell>
        <mxCell id="gyEde0tI7jQMU0-lnPvx-27" style="edgeStyle=orthogonalEdgeStyle;rounded=0;orthogonalLoop=1;jettySize=auto;html=1;exitX=0.5;exitY=1;exitDx=0;exitDy=0;entryX=0.5;entryY=0;entryDx=0;entryDy=0;" parent="6YTczOYNobDPG6v779US-10" source="gyEde0tI7jQMU0-lnPvx-26" target="gyEde0tI7jQMU0-lnPvx-28" edge="1">
          <mxGeometry relative="1" as="geometry">
            <mxPoint x="70.33333333333303" y="470" as="targetPoint" />
          </mxGeometry>
        </mxCell>
        <mxCell id="gyEde0tI7jQMU0-lnPvx-29" value="プレイ方法選択へ" style="edgeLabel;html=1;align=center;verticalAlign=middle;resizable=0;points=[];" parent="gyEde0tI7jQMU0-lnPvx-27" vertex="1" connectable="0">
          <mxGeometry x="-0.0154" y="1" relative="1" as="geometry">
            <mxPoint as="offset" />
          </mxGeometry>
        </mxCell>
        <mxCell id="gyEde0tI7jQMU0-lnPvx-26" value="５秒おきの信号の送信をやめ、通信切断" style="rounded=0;whiteSpace=wrap;html=1;" parent="6YTczOYNobDPG6v779US-10" vertex="1">
          <mxGeometry x="5" y="390" width="130" height="40" as="geometry" />
        </mxCell>
        <mxCell id="gyEde0tI7jQMU0-lnPvx-28" value="" style="ellipse;html=1;shape=endState;fillColor=#000000;strokeColor=#000000;" parent="6YTczOYNobDPG6v779US-10" vertex="1">
          <mxGeometry x="59.5" y="495" width="21" height="20" as="geometry" />
        </mxCell>
        <mxCell id="6YTczOYNobDPG6v779US-52" value="サーバ" style="swimlane;startSize=20;html=1;" parent="6YTczOYNobDPG6v779US-3" vertex="1">
          <mxGeometry x="630" y="20" width="220" height="640" as="geometry" />
        </mxCell>
        <mxCell id="6YTczOYNobDPG6v779US-53" value="" style="endArrow=classic;html=1;rounded=0;entryX=1;entryY=0.5;entryDx=0;entryDy=0;" parent="6YTczOYNobDPG6v779US-52" target="6YTczOYNobDPG6v779US-29" edge="1">
          <mxGeometry width="50" height="50" relative="1" as="geometry">
            <mxPoint x="30" y="225" as="sourcePoint" />
            <mxPoint x="120" y="190" as="targetPoint" />
          </mxGeometry>
        </mxCell>
        <mxCell id="6YTczOYNobDPG6v779US-54" value="相手の操作情報をクライアントへ送信" style="rounded=0;whiteSpace=wrap;html=1;" parent="6YTczOYNobDPG6v779US-52" vertex="1">
          <mxGeometry x="30" y="215" width="120" height="35" as="geometry" />
        </mxCell>
        <mxCell id="6YTczOYNobDPG6v779US-55" style="edgeStyle=orthogonalEdgeStyle;rounded=0;orthogonalLoop=1;jettySize=auto;html=1;exitX=0.5;exitY=1;exitDx=0;exitDy=0;entryX=0.5;entryY=0;entryDx=0;entryDy=0;" parent="6YTczOYNobDPG6v779US-52" source="6YTczOYNobDPG6v779US-56" target="6YTczOYNobDPG6v779US-58" edge="1">
          <mxGeometry relative="1" as="geometry" />
        </mxCell>
        <mxCell id="6YTczOYNobDPG6v779US-56" value="クライアントの操作情報を受信" style="rounded=0;whiteSpace=wrap;html=1;" parent="6YTczOYNobDPG6v779US-52" vertex="1">
          <mxGeometry x="30" y="277.5" width="120" height="35" as="geometry" />
        </mxCell>
        <mxCell id="6YTczOYNobDPG6v779US-57" style="edgeStyle=orthogonalEdgeStyle;rounded=0;orthogonalLoop=1;jettySize=auto;html=1;exitX=1;exitY=0.5;exitDx=0;exitDy=0;" parent="6YTczOYNobDPG6v779US-52" source="6YTczOYNobDPG6v779US-58" edge="1">
          <mxGeometry relative="1" as="geometry">
            <mxPoint x="150.21739130434798" y="170" as="targetPoint" />
            <Array as="points">
              <mxPoint x="180" y="350" />
              <mxPoint x="180" y="170" />
            </Array>
          </mxGeometry>
        </mxCell>
        <mxCell id="6YTczOYNobDPG6v779US-58" value="操作情報を相手へ送信" style="rounded=0;whiteSpace=wrap;html=1;" parent="6YTczOYNobDPG6v779US-52" vertex="1">
          <mxGeometry x="20" y="340" width="130" height="20" as="geometry" />
        </mxCell>
        <mxCell id="6YTczOYNobDPG6v779US-59" style="edgeStyle=orthogonalEdgeStyle;rounded=0;orthogonalLoop=1;jettySize=auto;html=1;exitX=0.5;exitY=1;exitDx=0;exitDy=0;entryX=0.5;entryY=0;entryDx=0;entryDy=0;" parent="6YTczOYNobDPG6v779US-52" source="6YTczOYNobDPG6v779US-60" target="6YTczOYNobDPG6v779US-54" edge="1">
          <mxGeometry relative="1" as="geometry" />
        </mxCell>
        <mxCell id="6YTczOYNobDPG6v779US-60" value="相手の操作情報受信" style="rounded=0;whiteSpace=wrap;html=1;" parent="6YTczOYNobDPG6v779US-52" vertex="1">
          <mxGeometry x="30" y="160" width="120" height="20" as="geometry" />
        </mxCell>
        <mxCell id="6YTczOYNobDPG6v779US-63" style="edgeStyle=orthogonalEdgeStyle;rounded=0;orthogonalLoop=1;jettySize=auto;html=1;exitX=0;exitY=0.5;exitDx=0;exitDy=0;entryX=1;entryY=0.5;entryDx=0;entryDy=0;" parent="6YTczOYNobDPG6v779US-3" source="6YTczOYNobDPG6v779US-14" target="6YTczOYNobDPG6v779US-5" edge="1">
          <mxGeometry relative="1" as="geometry">
            <mxPoint x="170" y="160" as="targetPoint" />
          </mxGeometry>
        </mxCell>
        <mxCell id="6YTczOYNobDPG6v779US-64" value="自分の番" style="edgeLabel;html=1;align=center;verticalAlign=middle;resizable=0;points=[];" parent="6YTczOYNobDPG6v779US-63" vertex="1" connectable="0">
          <mxGeometry x="-0.0909" relative="1" as="geometry">
            <mxPoint as="offset" />
          </mxGeometry>
        </mxCell>
        <mxCell id="6YTczOYNobDPG6v779US-67" style="edgeStyle=orthogonalEdgeStyle;rounded=0;orthogonalLoop=1;jettySize=auto;html=1;exitX=1;exitY=0.5;exitDx=0;exitDy=0;entryX=0;entryY=0.5;entryDx=0;entryDy=0;" parent="6YTczOYNobDPG6v779US-3" source="6YTczOYNobDPG6v779US-18" target="6YTczOYNobDPG6v779US-56" edge="1">
          <mxGeometry relative="1" as="geometry">
            <mxPoint x="660" y="315" as="targetPoint" />
          </mxGeometry>
        </mxCell>
        <mxCell id="gyEde0tI7jQMU0-lnPvx-22" style="edgeStyle=orthogonalEdgeStyle;rounded=0;orthogonalLoop=1;jettySize=auto;html=1;exitX=1;exitY=0.5;exitDx=0;exitDy=0;entryX=0;entryY=0.5;entryDx=0;entryDy=0;" parent="6YTczOYNobDPG6v779US-3" source="gyEde0tI7jQMU0-lnPvx-20" target="6YTczOYNobDPG6v779US-16" edge="1">
          <mxGeometry relative="1" as="geometry" />
        </mxCell>
        <mxCell id="gyEde0tI7jQMU0-lnPvx-23" value="入力される" style="edgeLabel;html=1;align=center;verticalAlign=middle;resizable=0;points=[];" parent="gyEde0tI7jQMU0-lnPvx-22" vertex="1" connectable="0">
          <mxGeometry x="-0.062" y="1" relative="1" as="geometry">
            <mxPoint as="offset" />
          </mxGeometry>
        </mxCell>
        <mxCell id="gyEde0tI7jQMU0-lnPvx-24" style="edgeStyle=orthogonalEdgeStyle;rounded=0;orthogonalLoop=1;jettySize=auto;html=1;exitX=0.5;exitY=1;exitDx=0;exitDy=0;entryX=0.5;entryY=0;entryDx=0;entryDy=0;" parent="6YTczOYNobDPG6v779US-3" source="gyEde0tI7jQMU0-lnPvx-20" target="gyEde0tI7jQMU0-lnPvx-26" edge="1">
          <mxGeometry relative="1" as="geometry">
            <mxPoint x="180" y="580" as="targetPoint" />
            <Array as="points">
              <mxPoint x="65" y="310" />
              <mxPoint x="200" y="310" />
            </Array>
          </mxGeometry>
        </mxCell>
        <mxCell id="gyEde0tI7jQMU0-lnPvx-25" value="退出が選択される" style="edgeLabel;html=1;align=center;verticalAlign=middle;resizable=0;points=[];" parent="gyEde0tI7jQMU0-lnPvx-24" vertex="1" connectable="0">
          <mxGeometry x="-0.6513" y="-2" relative="1" as="geometry">
            <mxPoint as="offset" />
          </mxGeometry>
        </mxCell>
        <mxCell id="610yPSSwg8hQJmwwh6tJ-3" value="" style="endArrow=classic;html=1;rounded=0;entryX=0.5;entryY=0;entryDx=0;entryDy=0;" parent="1" target="610yPSSwg8hQJmwwh6tJ-4" edge="1">
          <mxGeometry width="50" height="50" relative="1" as="geometry">
            <mxPoint x="340" y="600" as="sourcePoint" />
            <mxPoint x="400" y="620" as="targetPoint" />
          </mxGeometry>
        </mxCell>
      </root>
    </mxGraphModel>
  </diagram>
</mxfile>
